<svg width="961" height="1157" viewBox="0 0 961 1157" fill="none" xmlns="http://www.w3.org/2000/svg">
<path d="M185.359 618.025L185.359 618.025L185.361 618.016C186.604 613.092 189.014 610.283 191.912 608.679C194.89 607.029 198.647 606.503 202.797 606.649C206.93 606.795 211.251 607.596 215.249 608.426C215.91 608.563 216.565 608.701 217.212 608.838C220.391 609.511 223.353 610.138 225.598 610.28L225.607 610.28L225.617 610.281C233.124 610.667 239.251 613.624 245.595 616.686C245.765 616.768 245.936 616.85 246.106 616.932C252.542 620.036 259.261 623.187 267.546 623.022L267.559 623.021L267.571 623.021C274.091 622.794 280.234 625.677 284.376 630.664C285.115 631.89 285.845 633.159 285.981 634.61C286.094 636.645 285.004 638.681 283.259 640.361C281.508 642.046 279.278 643.192 277.469 643.508C275.567 643.73 273.684 643.487 271.593 643.138C271.329 643.094 271.06 643.048 270.787 643.002C268.957 642.689 266.955 642.347 264.873 642.343L264.862 642.343C261.269 642.36 257.599 643.474 254.038 644.959C251.244 646.123 248.406 647.566 245.658 648.963C244.914 649.341 244.177 649.716 243.448 650.081C239.974 651.823 236.688 653.355 233.601 654.205C230.539 655.048 227.803 655.184 225.348 654.264L225.334 654.259L225.32 654.254C221.955 653.069 219.699 650.145 217.405 646.587C217.094 646.105 216.782 645.61 216.466 645.109C214.549 642.066 212.476 638.778 209.571 636.655L209.569 636.654C207.046 634.816 204.082 633.917 201.2 633.22C200.444 633.037 199.701 632.869 198.971 632.704C196.838 632.222 194.809 631.763 192.864 631.025L192.835 631.014L192.805 631.005C187.767 629.331 183.676 624.501 185.359 618.025Z" stroke="#FF9ABE" stroke-width="3" stroke-miterlimit="10"/>
<path d="M255.072 660.211L255.064 660.216L255.056 660.22C253.27 661.254 251.441 662.377 249.564 663.53C246.381 665.485 243.061 667.523 239.588 669.348C234.124 672.22 228.706 674.315 223.713 674.394C219.106 674.441 215.493 672.755 212.103 670.102C209.343 667.891 207.145 664.93 205.026 661.528C204.06 659.975 203.123 658.353 202.156 656.679C202.064 656.52 201.972 656.36 201.879 656.2C200.82 654.368 199.724 652.485 198.535 650.618C196.481 647.23 194.165 644.178 191.086 641.949C187.725 639.262 183.763 637.683 179.609 636.43C177.716 635.859 175.758 635.349 173.792 634.837C173.598 634.786 173.405 634.736 173.211 634.685C171.039 634.119 168.855 633.54 166.667 632.852L166.655 632.848C154.557 629.149 149.101 618.398 152.473 606.499C153.624 602.438 155.219 598.775 157.247 595.499C160.443 590.641 164.689 585.655 169.636 581.949C174.581 578.245 180.13 575.885 186.02 576.067C187.177 576.104 188.433 576.503 189.819 577.202C191.199 577.898 192.6 578.835 194.057 579.849C194.303 580.02 194.55 580.193 194.8 580.368C196.001 581.209 197.24 582.077 198.465 582.812C199.94 583.697 201.519 584.468 203.16 584.789L203.17 584.791L203.18 584.793C206.634 585.422 209.966 585.959 213.167 586.475C219.069 587.426 224.524 588.305 229.475 589.56L229.487 589.563L229.5 589.566C236.31 591.171 243.265 591.839 250.016 592.488C250.789 592.562 251.56 592.636 252.327 592.711C259.84 593.447 267.067 594.291 273.832 596.472C276.847 597.449 279.445 599.567 282.248 601.96C282.397 602.087 282.546 602.214 282.696 602.343C285.265 604.54 288.037 606.912 291.304 608.246C292.482 608.862 293.515 609.152 294.922 609.265L294.944 609.267L294.965 609.268C305.249 609.822 313.559 615.05 318.717 622.825L318.728 622.842L318.74 622.858C320.195 624.904 321.19 627.256 321.322 630.286L321.336 630.607L321.408 630.726C321.261 635.005 318.888 639.382 315.549 642.924C312.19 646.487 308.063 648.985 304.706 649.68L304.679 649.685L304.653 649.691C301.616 650.416 298.712 650.24 295.667 649.831C294.929 649.732 294.171 649.617 293.399 649.5C291.081 649.147 288.63 648.774 286.162 648.756C284.244 648.719 282.535 648.762 280.7 649.051C272.504 650.232 264.759 654.668 257.634 658.75C256.771 659.244 255.917 659.734 255.072 660.211Z" stroke="#FF9ABE" stroke-width="3" stroke-miterlimit="10"/>
<path d="M215.317 694.223L215.308 694.222L215.298 694.222C208.147 693.805 203.149 690.313 198.898 685.918C195.546 682.42 192.945 678.147 190.461 673.481C189.582 671.828 188.71 670.112 187.824 668.367C186.243 665.253 184.616 662.05 182.816 658.957C180.263 654.356 177.022 650.591 173.488 647.518L173.476 647.507L173.463 647.496C169.087 643.884 163.892 641.697 158.362 639.957C155.6 639.087 152.729 638.321 149.829 637.55L149.667 637.507C146.81 636.747 143.921 635.979 141.014 635.087C121.24 628.947 114.77 612.499 119.793 595.316C121.84 589.165 124.122 583.245 127.535 578.192L127.541 578.182L127.548 578.173C132.217 571.042 138.411 562.713 145.739 556.237C153.071 549.759 161.342 545.305 170.245 545.507C171.813 545.57 173.577 546.339 175.566 547.713C177.536 549.074 179.542 550.896 181.614 552.825C181.833 553.028 182.052 553.233 182.272 553.439C184.109 555.152 185.993 556.911 187.862 558.356C189.936 559.959 192.161 561.317 194.485 561.76L194.485 561.76L194.499 561.763C199.196 562.614 203.821 563.307 208.309 563.98C210.688 564.337 213.029 564.688 215.323 565.054C221.98 566.115 228.313 567.312 234.338 569.159C244.351 572.28 255.256 572.111 265.88 571.84C266.277 571.83 266.674 571.82 267.07 571.81C277.37 571.543 287.369 571.284 296.541 573.674L296.547 573.675C298.278 574.118 299.9 575.161 301.498 576.673C303.094 578.183 304.586 580.083 306.091 582.136C306.536 582.742 306.984 583.366 307.436 583.995C308.486 585.456 309.556 586.944 310.647 588.311C312.211 590.269 313.907 592.098 315.837 593.404C317.155 594.326 318.684 595.08 320.515 595.298L320.564 595.304L320.613 595.307C335.425 596.169 346.599 604.165 353.327 614.881C355.271 618.089 356.715 621.569 356.74 626.287L356.745 627.237L356.801 627.253C356.383 633.477 352.926 639.895 348.202 645.119C343.332 650.505 337.338 654.379 332.405 655.477L332.386 655.482L332.367 655.486C327.736 656.624 323.456 656.364 319.019 655.806C318.102 655.691 317.172 655.562 316.23 655.431C312.683 654.937 308.952 654.419 305.032 654.527L305.015 654.527L304.998 654.528C302.693 654.637 299.95 654.892 297.361 655.475C285.383 658.095 274.163 665.106 264.245 671.304C263.165 671.978 262.101 672.644 261.052 673.292L261.042 673.299C258.837 674.685 256.521 676.232 254.108 677.844C249.441 680.962 244.407 684.324 239.103 687.241C231.098 691.644 222.93 694.756 215.317 694.223Z" stroke="#FF9ABE" stroke-width="3" stroke-miterlimit="10"/>
<path d="M266.912 686.785L266.912 686.785C264.066 688.582 261.034 690.632 257.845 692.788C251.812 696.866 245.215 701.325 238.245 705.182C227.64 711.049 216.679 715.207 206.484 714.193C197.406 713.241 190.74 707.824 185.653 701.694C181.734 696.91 178.741 691.333 175.871 685.459C175.181 684.048 174.498 682.617 173.81 681.177C171.657 676.669 169.46 672.071 166.903 667.706C163.724 661.694 159.939 657.016 155.457 653.163L155.455 653.16C146.407 645.423 134.363 642.282 121.294 638.873C119.326 638.36 117.336 637.841 115.328 637.299L115.326 637.299C101.449 633.572 92.8234 625.942 88.4634 616.502C84.0901 607.032 83.9658 595.64 87.3269 584.367L87.3297 584.358L87.3324 584.349C89.6603 576.139 93.0856 568.275 97.6775 561.264C103.751 552.006 111.866 540.356 121.55 531.118C131.254 521.86 142.27 515.273 154.194 515.61L154.197 515.61C156.335 515.666 158.698 516.813 161.311 518.842C163.891 520.846 166.501 523.534 169.169 526.352C169.446 526.644 169.723 526.938 170.001 527.232C172.374 529.744 174.789 532.301 177.188 534.387C179.839 536.691 182.666 538.602 185.625 539.159L185.634 539.16C192.148 540.347 198.534 541.239 204.736 542.104C207.74 542.523 210.701 542.936 213.612 543.374C222.573 544.722 231.15 546.314 239.434 549.053C252.022 553.296 266.133 552.377 279.947 551.18C280.906 551.097 281.864 551.012 282.819 550.928C295.752 549.788 308.328 548.679 319.677 551.242C321.76 551.736 323.649 553.108 325.458 555.195C327.263 557.279 328.885 559.952 330.488 562.856C331.051 563.876 331.615 564.932 332.184 565.995C333.207 567.909 334.242 569.846 335.303 571.638C336.963 574.439 338.781 577.06 340.928 578.954L340.972 578.992L341.019 579.027L341.058 579.055C341.867 579.65 342.767 580.311 343.713 580.822C344.67 581.339 345.788 581.768 347.063 581.8C366.13 582.903 379.975 593.381 388.441 607.337C390.922 611.426 392.968 616.261 392.657 622.487C392.619 622.668 392.616 622.822 392.619 622.927C392.624 623.05 392.64 623.165 392.651 623.235L392.642 623.344C391.947 631.864 387.15 640.701 380.757 647.879C374.343 655.08 366.539 660.374 360.088 662.027L360.074 662.031C353.818 663.685 348.106 663.325 342.258 662.581C341.142 662.44 340.017 662.283 338.88 662.124C334.129 661.462 329.178 660.772 323.943 661.044L323.907 661.046L323.871 661.049L323.802 661.055C320.569 661.36 317.173 661.681 313.843 662.547C305.041 664.533 296.752 668.433 288.967 672.894C283.676 675.926 278.538 679.266 273.628 682.459C271.337 683.949 269.096 685.406 266.912 686.785Z" stroke="#FF9ABE" stroke-width="3" stroke-miterlimit="10"/>
<path d="M442.986 680.802L442.975 680.805C431.901 683.811 421.883 683.091 411.746 681.807C410.173 681.607 408.593 681.394 407.005 681.179C398.439 680.021 389.63 678.829 380.182 679.672C374.531 680.097 368.605 681.2 363.157 682.687C337.833 689.502 314.819 705.485 294.541 719.568C291.11 721.951 287.758 724.279 284.486 726.5C280.372 729.264 275.892 732.468 271.112 735.887C260.706 743.328 248.877 751.788 236.306 758.951C217.988 769.389 198.598 776.755 180.581 774.02C164.37 771.548 153.555 760.531 145.812 748.906C140.191 740.397 136.093 731.011 132.162 721.343C131.491 719.695 130.826 718.037 130.158 716.375C126.922 708.321 123.64 700.148 119.562 692.314C114.746 682.834 108.754 675.277 101.773 669.211C85.7394 655.216 64.0861 649.813 38.3048 643.434C12.8962 637.025 -2.12462 623.403 -9.37702 606.655C-16.6465 589.867 -16.1583 569.82 -10.2616 550.54C-5.69463 536.443 0.155719 522.3 8.45741 509.643C9.14729 508.592 9.85289 507.513 10.574 506.411C20.6205 491.06 33.6811 471.102 49.2381 454.687C65.9478 437.056 85.1794 423.893 106.311 424.519L106.311 424.52L106.321 424.52C110.247 424.612 114.42 427.017 118.862 431.058C123.255 435.055 127.653 440.403 132.09 445.925C132.513 446.451 132.937 446.979 133.36 447.507C137.353 452.486 141.374 457.501 145.376 461.547C149.757 465.976 154.346 469.497 159.124 470.379C170.321 472.477 181.436 473.853 192.36 475.207C197.521 475.846 202.639 476.48 207.704 477.182C223.542 479.379 238.985 482.255 254.061 488.05L254.065 488.051C274.089 495.695 297.518 492.491 320.806 488.436C323.131 488.031 325.454 487.618 327.773 487.205C348.862 483.454 369.611 479.764 388.149 482.964C391.338 483.564 394.089 485.975 396.58 489.882C399.054 493.762 401.113 498.865 403.061 504.406C403.868 506.702 404.664 509.095 405.461 511.493C406.559 514.799 407.661 518.115 408.803 521.201C410.783 526.554 412.979 531.501 415.727 535.033C418.003 537.997 420.921 540.395 424.682 540.564C456.882 542.437 479.499 560.868 492.712 584.142C496.658 591.393 500.063 599.601 499.416 610.934C499.306 611.299 499.303 611.6 499.302 611.756L499.301 611.783C499.301 611.831 499.299 611.863 499.299 611.883L499.226 612.05L499.205 612.275C497.818 627.459 489.416 643.12 478.438 655.774C467.436 668.456 454.065 677.87 442.986 680.802Z" stroke="#FF9ABE" stroke-width="3" stroke-miterlimit="10"/>
<path d="M171.795 793.756L171.781 793.754C153.534 790.947 141.062 777.977 132.498 764.624C126.328 754.835 121.848 744.154 117.488 733.208C116.961 731.885 116.436 730.559 115.91 729.23C112.092 719.585 108.218 709.798 103.247 700.425C97.7078 689.759 91.1726 681.297 83.2602 674.462C65.4747 658.72 41.3067 652.597 12.179 645.261L12.168 645.258C-17.1511 638.102 -34.3619 622.486 -42.6215 603.274C-50.9002 584.016 -50.233 561.027 -43.5036 539.114L-43.5016 539.108C-38.5348 522.654 -31.8208 506.524 -22.0989 492.039L-22.0956 492.034C-20.673 489.898 -19.1948 487.659 -17.6619 485.336C-6.44104 468.338 7.71038 446.9 24.4015 429.007C43.4083 408.632 65.3313 393.264 89.5824 393.916L89.5885 393.916C93.9576 394.017 98.638 396.839 103.637 401.556C108.579 406.219 113.553 412.457 118.582 418.881C118.98 419.39 119.379 419.9 119.777 420.41C124.387 426.307 129.036 432.256 133.664 437.032C138.645 442.173 143.838 446.219 149.209 447.207C162.135 449.625 174.938 451.159 187.513 452.667C193.384 453.371 199.205 454.069 204.966 454.848C223.123 457.303 240.82 460.576 258.12 467.379L258.126 467.381C280.676 476.126 307.193 472.168 333.632 467.179C336.33 466.67 339.028 466.15 341.721 465.631C365.606 461.028 389.165 456.488 410.207 459.966C413.9 460.597 416.987 463.371 419.707 467.882C422.408 472.362 424.584 478.279 426.621 484.703C427.444 487.3 428.249 489.998 429.057 492.703C430.223 496.607 431.393 500.526 432.629 504.181C434.724 510.379 437.089 516.092 440.152 520.159C442.574 523.737 445.767 526.143 450.011 526.486L450.028 526.488L450.046 526.489C486.822 528.669 512.305 549.908 527.072 576.123C531.592 584.325 535.64 594.001 534.652 606.825L534.64 606.983L534.665 607.137C534.676 607.2 534.675 607.269 534.646 607.527L534.643 607.559C534.621 607.758 534.585 608.077 534.621 608.441C533.025 625.776 523.487 643.666 511.035 658.121C498.524 672.646 483.29 683.452 470.622 686.799L470.612 686.802L470.601 686.805C457.889 690.333 446.429 689.511 434.882 688.042C433.091 687.814 431.294 687.57 429.49 687.325C419.734 685.998 409.736 684.639 399.012 685.65C392.363 686.277 385.781 687.436 379.552 689.216C351.169 697.069 325.412 715.02 302.609 730.91C298.39 733.851 294.272 736.721 290.258 739.443C285.41 742.71 280.12 746.528 274.469 750.608C262.778 759.048 249.54 768.606 235.467 776.703C214.631 788.691 192.503 797.132 171.795 793.756Z" stroke="#FF9ABE" stroke-width="3" stroke-miterlimit="10"/>
</svg>
