<svg width="932" height="1394" viewBox="0 0 932 1394" fill="none" xmlns="http://www.w3.org/2000/svg">
<path d="M680.333 638.505L680.333 638.505L680.339 638.512C683.436 642.569 684.218 646.184 683.788 649.392C683.348 652.675 681.601 655.835 679.114 658.876C676.632 661.908 673.537 664.674 670.596 667.185C670.113 667.598 669.629 668.008 669.152 668.411C666.804 670.4 664.603 672.264 663.192 673.888L663.186 673.895L663.179 673.903C658.584 679.329 652.802 682.106 646.781 684.999C646.623 685.075 646.465 685.15 646.307 685.226C640.212 688.157 633.879 691.288 629.211 697.714L629.203 697.725L629.196 697.736C625.654 702.773 619.945 705.608 613.741 705.618C612.375 705.408 610.979 705.165 609.781 704.356C608.127 703.149 607.176 701.017 606.883 698.626C606.589 696.227 606.993 693.825 607.777 692.279C608.688 690.719 609.944 689.457 611.414 688.092C611.599 687.92 611.789 687.745 611.982 687.568C613.275 686.377 614.703 685.063 615.914 683.473L615.92 683.465C617.993 680.705 619.249 677.202 620.154 673.568C620.864 670.715 621.385 667.653 621.889 664.69C622.026 663.888 622.161 663.093 622.298 662.312C622.955 658.58 623.663 655.13 624.781 652.263C625.889 649.419 627.343 647.295 629.423 646.036L629.437 646.028L629.45 646.02C632.255 644.241 635.773 644.357 639.85 644.854C640.4 644.921 640.962 644.995 641.531 645.07C642.991 645.262 644.495 645.46 645.95 645.561C647.989 645.703 650.068 645.671 652.051 645.15L652.054 645.149C654.951 644.382 657.371 642.683 659.572 640.931C660.152 640.469 660.712 640.008 661.262 639.557C662.858 638.244 664.367 637.003 666.045 635.998L666.073 635.981L666.1 635.963C670.215 633.243 676.277 633.119 680.333 638.505Z" stroke="#FF9ABE" stroke-width="3" stroke-miterlimit="10"/>
<path d="M607.794 664.762L607.795 664.753L607.796 664.744C608.027 662.739 608.213 660.645 608.404 658.497C608.729 654.854 609.067 651.055 609.657 647.274C610.588 641.318 612.089 635.913 614.882 632.103C617.467 628.62 620.808 626.952 624.789 626.052C628.067 625.35 631.604 625.542 635.448 626.073C637.201 626.315 638.991 626.624 640.839 626.942C641.015 626.972 641.191 627.003 641.367 627.033C643.39 627.381 645.475 627.733 647.6 628.004C651.394 628.576 655.094 628.739 658.605 627.799C662.635 626.933 666.15 624.909 669.515 622.54C671.047 621.461 672.57 620.294 674.096 619.125C674.247 619.009 674.398 618.894 674.548 618.778C676.235 617.487 677.936 616.196 679.722 614.971L679.733 614.964C689.463 608.171 700.88 610.716 708.153 620.802C710.627 624.233 712.539 627.752 713.902 631.357C715.813 636.843 717.216 643.205 717.227 649.292C717.239 655.384 715.86 661.051 712.36 665.369C711.687 666.196 710.681 666.886 709.354 667.493C708.033 668.098 706.513 668.57 704.891 669.038C704.619 669.117 704.343 669.195 704.065 669.275C702.725 669.657 701.337 670.054 700.06 670.523C698.524 671.087 697 671.808 695.786 672.87L695.778 672.877L695.77 672.884C693.29 675.115 690.955 677.308 688.713 679.414C684.587 683.289 680.779 686.867 676.967 689.829L676.956 689.837L676.946 689.846C671.779 694.011 667.252 698.877 662.867 703.59C662.364 704.13 661.864 704.668 661.364 705.203C656.472 710.44 651.673 715.38 646.114 719.13C643.653 720.784 640.552 721.421 637.086 722.045C636.901 722.078 636.714 722.111 636.526 722.145C633.362 722.711 629.92 723.326 626.991 724.975C625.822 725.49 624.987 726.104 624.076 727.115L624.061 727.132L624.046 727.15C617.741 734.555 608.973 737.569 600.024 736.597L600.004 736.595L599.983 736.593C597.579 736.412 595.193 735.693 592.774 733.884L592.52 733.694L592.386 733.674C589.152 730.859 587.134 726.285 586.321 721.514C585.503 716.711 585.957 712.016 587.343 709.056L587.355 709.031L587.366 709.006C588.545 706.269 590.337 704.193 592.399 702.146C592.896 701.652 593.418 701.153 593.951 700.643C595.559 699.104 597.27 697.467 598.713 695.596C599.847 694.161 600.803 692.83 601.642 691.246C605.458 684.268 606.495 675.59 607.447 667.625C607.562 666.659 607.676 665.703 607.794 664.762Z" stroke="#FF9ABE" stroke-width="3" stroke-miterlimit="10"/>
<path d="M604.41 613.283L604.416 613.275L604.423 613.267C608.821 608.15 614.345 606.558 620.176 606.095C624.792 605.752 629.579 606.462 634.607 607.51C636.387 607.882 638.212 608.299 640.067 608.723C643.38 609.481 646.79 610.26 650.212 610.838C655.237 611.794 660.015 611.702 664.43 610.951L664.447 610.948L664.464 610.944C669.792 609.89 674.487 607.312 679.021 604.206C681.286 602.654 683.532 600.955 685.795 599.24L685.921 599.144C688.152 597.454 690.405 595.747 692.763 594.105C708.793 583.023 725.19 588.377 735.59 603.039C739.158 608.459 742.416 613.919 744.354 619.695L744.357 619.706L744.361 619.716C747.175 627.743 750.038 637.684 750.815 647.319C751.594 656.974 750.26 666.021 745.013 672.607C744.093 673.718 742.521 674.563 740.322 675.206C738.148 675.842 735.596 676.219 732.914 676.579C732.632 676.617 732.347 676.654 732.062 676.692C729.684 677.008 727.238 677.333 725.041 677.844C722.609 678.41 720.252 679.251 718.542 680.763L718.536 680.768L718.531 680.773C715.169 683.802 711.969 686.878 708.865 689.862C707.221 691.442 705.604 692.996 704.004 694.504C699.355 698.885 694.794 702.932 689.912 706.335C681.714 711.987 675.553 720.39 669.65 728.617C669.431 728.921 669.213 729.226 668.994 729.53C663.266 737.519 657.724 745.249 650.621 750.691L650.615 750.696C649.308 751.707 647.597 752.278 645.517 752.539C643.442 752.8 641.124 752.738 638.675 752.59C637.952 752.546 637.214 752.494 636.469 752.442C634.737 752.321 632.97 752.197 631.286 752.165C628.875 752.121 626.476 752.258 624.342 752.906C622.86 753.33 621.372 754.025 620.124 755.304L620.088 755.341L620.054 755.381C610.908 766.023 598.359 769.475 586.233 767.846C582.647 767.306 579.132 766.216 575.472 763.266L574.715 762.655L574.672 762.687C570.107 758.443 567.145 751.776 565.834 744.908C564.479 737.812 564.947 730.835 566.929 726.425L566.937 726.406L566.945 726.388C568.723 722.182 571.372 719.115 574.35 716.105C574.963 715.485 575.596 714.863 576.238 714.232C578.661 711.85 581.222 709.333 583.404 706.279L583.414 706.265L583.424 706.25C584.669 704.43 586.055 702.181 587.1 699.843C591.98 689.094 593.03 676.165 593.957 664.751C594.058 663.507 594.158 662.281 594.261 661.078L594.262 661.065C594.462 658.521 594.601 655.792 594.747 652.948C595.028 647.448 595.332 641.517 596.134 635.66C597.347 626.81 599.647 618.688 604.41 613.283Z" stroke="#FF9ABE" stroke-width="3" stroke-miterlimit="10"/>
<path d="M580.481 657.043L580.481 657.043C580.732 653.754 580.896 650.166 581.069 646.391C581.396 639.252 581.753 631.446 582.79 623.734C584.368 611.991 587.47 601.096 594.085 594.035C599.999 587.794 607.968 586.139 615.623 586.132C621.561 586.166 627.581 587.399 633.765 588.913C635.249 589.277 636.745 589.658 638.252 590.041C642.969 591.24 647.782 592.464 652.623 593.267C659.094 594.636 664.889 594.705 670.455 593.724L670.459 593.724C681.667 591.716 691.053 584.529 701.202 576.758C702.73 575.588 704.275 574.405 705.846 573.225L705.848 573.223C716.67 565.067 727.485 563.318 737.265 565.94C747.083 568.573 755.95 575.64 762.722 585.289L762.727 585.297L762.732 585.304C767.73 592.235 771.829 599.784 774.597 607.683C778.243 618.11 782.561 631.595 784.115 644.754C785.673 657.959 784.401 670.429 777.314 679.219L777.312 679.222C776.072 680.765 773.87 681.828 770.804 682.535C767.783 683.231 764.215 683.521 760.504 683.774C760.119 683.801 759.733 683.827 759.346 683.852C756.044 684.074 752.676 684.299 749.681 684.81C746.379 685.372 743.243 686.32 741.076 688.246L741.069 688.252C736.401 692.45 732.034 696.739 727.795 700.901C725.743 702.917 723.722 704.902 721.711 706.833C715.516 712.781 709.36 718.28 702.491 722.834C691.939 729.739 684.51 741.054 677.486 752.281C676.999 753.059 676.514 753.836 676.03 754.612C669.462 765.147 663.092 775.362 654.604 782.344C653.062 783.583 650.949 784.153 648.303 784.214C645.665 784.274 642.675 783.825 639.512 783.216C638.403 783.002 637.263 782.767 636.116 782.53C634.051 782.103 631.958 781.671 629.965 781.35C626.849 780.848 623.772 780.578 621.06 781.02L621 781.029L620.941 781.045L620.893 781.057C619.971 781.297 618.936 781.565 617.989 781.966C617.029 782.371 616.029 782.962 615.248 783.937C603.469 797.653 587.47 801.572 571.841 799.226C567.268 798.539 562.358 797.055 557.725 792.897C557.611 792.758 557.497 792.661 557.414 792.597C557.317 792.523 557.218 792.463 557.158 792.428L557.075 792.349C550.889 786.453 546.827 777.242 544.968 767.871C543.101 758.464 543.514 749.219 545.944 743.306L545.949 743.293C548.266 737.53 551.815 733.44 555.748 729.477C556.496 728.723 557.263 727.97 558.039 727.208C561.285 724.019 564.682 720.683 567.494 716.527L567.515 716.496L567.535 716.463L567.572 716.404C569.196 713.762 570.908 710.977 572.16 707.898C575.699 699.96 577.462 691.213 578.502 682.505C579.209 676.586 579.589 670.589 579.952 664.856C580.121 662.183 580.287 659.567 580.481 657.043Z" stroke="#FF9ABE" stroke-width="3" stroke-miterlimit="10"/>
</svg>
